[Header]
FileType HTR
DataType HTRS
FileVersion 1
NumSegments 22
NumFrames 4
DataFrameRate 24
EulerRotationOrder ZYX
CalibrationUnits mm
RotationUnits Degrees
GlobalAxisofGravity Y
BoneLengthAxis Y
ScaleFactor 1.0
[SegmentNames&Hierarchy]
reference	GLOBAL
Hips	reference
Spine	Hips
Spine1	Spine
Neck	Spine1
Head	Neck
LeftShoulder	Spine1
LeftArm	LeftShoulder
LeftForeArm	LeftArm
LeftHand	LeftForeArm
RightShoulder	Spine1
RightArm	RightShoulder
RightForeArm	RightArm
RightHand	RightForeArm
LeftUpLeg	Hips
LeftLeg	LeftUpLeg
LeftFoot	LeftLeg
LeftToeBase	LeftFoot
RightUpLeg	Hips
RightLeg	RightUpLeg
RightFoot	RightLeg
RightToeBase	RightFoot
[BasePosition]
reference	0	0	0	0	0	0	1
Hips	0	0	0	0	0	0	1
Spine	0	0	0	0	-0	90	1
Spine1	0	0	0	0	0	0	1
Neck	0	0	0	-7.352430803	-7.352430803	90	1
Head	0	0	0	0	-0	90	1
LeftShoulder	0	0	0	0	0	0	1
LeftArm	0	0	0	0	0	0	1
LeftForeArm	0	0	0	0	0	0	1
LeftHand	0	0	0	0	0	0	1
RightShoulder	0	0	0	0	-0	180	1
RightArm	0	0	0	0	-0	180	1
RightForeArm	0	0	0	0	-0	180	1
RightHand	0	0	0	0	-0	180	1
LeftUpLeg	0	0	0	0	-0	-90	1
LeftLeg	0	0	0	0	-0	-90	1
LeftFoot	0	0	0	66.57150701	-66.57150701	-90	1
LeftToeBase	0	0	0	0	-90	0	1
RightUpLeg	0	0	0	0	-0	-90	1
RightLeg	0	0	0	0	-0	-90	1
RightFoot	0	0	0	66.57150701	-66.57150701	-90	1
RightToeBase	0	0	0	0	-90	0	1
[reference]
55	0	0	0	0	-0	0	1.0
56	0	0	0	0	-0	0	1.0
57	0	0	0	0	-0	0	1.0
58	0	0	0	0	-0	0	1.0
[Hips]
55	-0.457998395	8.652990341	-0.5730519891	19.72035217	-50.33006287	-12.69819641	1.0
56	-0.5173979998	8.652990341	-0.5709263682	12.33858013	-51.66677856	-8.725862503	1.0
57	-0.5700775385	8.652990341	-0.5421370864	10.47572899	-51.95789337	-7.836092472	1.0
58	-0.5835550427	8.652990341	-0.5042104721	9.978937149	-51.75971603	-7.891606331	1.0
[Spine]
55	0	0.7478299737	0	-22.45148659	2.227141619	-86.83529663	1.0
56	0	0.7478299737	0	-19.56729126	1.993759394	-88.72636414	1.0
57	0	0.7478299737	0	-18.70733452	1.524514794	-88.66912842	1.0
58	0	0.7478299737	0	-18.24306107	0.4787119031	-88.56425476	1.0
[Spine1]
55	0	2.049309969	0	10.8797636	0.7243217826	-2.607131958	1.0
56	0	2.049309969	0	12.40112114	0.8015657663	-2.15707922	1.0
57	0	2.049309969	0	12.81811714	0.6810258031	-2.116942883	1.0
58	0	2.049309969	0	13.4115839	0.2761385739	-1.604048491	1.0
[Neck]
55	0	2.231709957	0	3.638584137	-13.87130833	-85.35421753	1.0
56	0	2.231709957	0	4.714314461	-13.55038834	-85.97242737	1.0
57	0	2.231709957	0	4.411954403	-13.06427956	-85.78125763	1.0
58	0	2.231709957	0	4.858383179	-12.46608639	-86.47650909	1.0
[Head]
55	0	1.413589954	0.1823999882	-9.914571762	-21.06401825	-87.16808319	1.0
56	0	1.413589954	0.1823999882	-9.936059952	-20.67412949	-88.68873596	1.0
57	0	1.413589954	0.1823999882	-9.294447899	-20.19443893	-89.10275269	1.0
58	0	1.413589954	0.1823999882	-10.65402126	-19.66693306	-86.34418488	1.0
[LeftShoulder]
55	0.3649300039	1.825889945	-0.04271000251	-12.97344685	-7.909736633	3.082493305	1.0
56	0.3649300039	1.825889945	-0.04271000251	-14.20364952	-9.818534851	2.212292194	1.0
57	0.3649300039	1.825889945	-0.04271000251	-15.10916042	-11.24060917	3.383111954	1.0
58	0.3649300039	1.825889945	-0.04271000251	-13.52266693	-10.67996788	4.523219585	1.0
[LeftArm]
55	1.24003005	0	0	48.10573959	5.047493458	-81.95362091	1.0
56	1.24003005	0	0	57.67162323	2.785404682	-82.86761475	1.0
57	1.24003005	0	0	63.3429718	3.021716833	-84.37444305	1.0
58	1.24003005	0	0	58.0026741	3.452908993	-83.55050659	1.0
[LeftForeArm]
55	2.847419977	0	0	-379.712738	-27.21045685	361.9302979	1.0
56	2.847419977	0	0	-376.8964844	-10.61918354	356.6544189	1.0
57	2.847419977	0	0	-372.3861694	-3.147674322	352.9036255	1.0
58	2.847419977	0	0	-367.8624878	-4.644104481	351.6058655	1.0
[LeftHand]
55	2.258270025	0	0	-18.73437119	-7.778789997	-7.510543823	1.0
56	2.258270025	0	0	-16.6264782	-5.596183777	-11.8205061	1.0
57	2.258270025	0	0	-12.52630806	-0.7224111557	-9.120762825	1.0
58	2.258270025	0	0	-8.347020149	1.555389524	-10.39262962	1.0
[RightShoulder]
55	-0.3646599948	1.825889945	-0.04271000251	-9.943993568	6.736368179	176.8561707	1.0
56	-0.3646599948	1.825889945	-0.04271000251	-10.83981705	9.017942429	178.0658569	1.0
57	-0.3646599948	1.825889945	-0.04271000251	-11.28351688	10.10151196	177.5735168	1.0
58	-0.3646599948	1.825889945	-0.04271000251	-9.8334589	9.287485123	177.1087341	1.0
[RightArm]
55	-1.24003005	0	0	64.01168823	3.354265213	-95.02929688	1.0
56	-1.24003005	0	0	65.57820892	2.432793379	-94.86907959	1.0
57	-1.24003005	0	0	65.72676849	-0.0276987385	-94.18074799	1.0
58	-1.24003005	0	0	57.81480026	-1.131398439	-95.44233704	1.0
[RightForeArm]
55	-2.847419977	0	0	-1.772613764	21.91306305	174.1370239	1.0
56	-2.847419977	0	0	-1.449163675	8.960454941	180.1535797	1.0
57	-2.847419977	0	0	-1.77530694	3.480371952	181.7184753	1.0
58	-2.847419977	0	0	0.1926430762	5.366336823	182.2176971	1.0
[RightHand]
55	-2.258270025	0	0	-0.4897398949	14.35926247	180.9958496	1.0
56	-2.258270025	0	0	-1.086550951	9.606452942	184.4261322	1.0
57	-2.258270025	0	0	-1.373167992	6.904903889	187.5230255	1.0
58	-2.258270025	0	0	0.5047746897	6.362163067	187.5209656	1.0
[LeftUpLeg]
55	0.9119900465	0	0	-2.620774984	12.13087559	101.3226395	1.0
56	0.9119900465	0	0	5.075410366	6.702962399	97.30158997	1.0
57	0.9119900465	0	0	6.531218052	5.021944523	96.93950653	1.0
58	0.9119900465	0	0	6.722862244	7.372614861	97.43719482	1.0
[LeftLeg]
55	0	-4.371409893	0	5.624032021	2.260928154	86.97003174	1.0
56	0	-4.371409893	0	-0.2227092981	9.414518356	88.76242828	1.0
57	0	-4.371409893	0	-0.8739284873	11.69740009	89.01148987	1.0
58	0	-4.371409893	0	0.2756906152	10.09427452	89.34942627	1.0
[LeftFoot]
55	0	-3.918009996	0	-98.84355927	115.6439819	-39.5510788	1.0
56	0	-3.918009996	0	-97.8775177	113.9612274	-44.73253632	1.0
57	0	-3.918009996	0	-98.98662567	113.6036224	-46.13540649	1.0
58	0	-3.918009996	0	-100.6252441	112.8296814	-47.66773224	1.0
[LeftToeBase]
55	0	-0.5927900076	1.367989898	0	0	0	1.0
56	0	-0.5927900076	1.367989898	0	0	0	1.0
57	0	-0.5927900076	1.367989898	0	0	0	1.0
58	0	-0.5927900076	1.367989898	0	0	0	1.0
[RightUpLeg]
55	-0.9119900465	0	0	-0.6461687088	-21.7638855	98.34048462	1.0
56	-0.9119900465	0	0	5.023237228	-22.77918434	92.26825714	1.0
57	-0.9119900465	0	0	6.245517254	-21.56726837	91.64254761	1.0
58	-0.9119900465	0	0	6.956472397	-20.13917542	91.76195526	1.0
[RightLeg]
55	0	-4.371409893	0	-4.426029205	-10.60089779	91.73047638	1.0
56	0	-4.371409893	0	-4.428293228	-9.811325073	92.66103363	1.0
57	0	-4.371409893	0	-4.319344044	-10.10318184	92.67874908	1.0
58	0	-4.371409893	0	-4.302122593	-10.93928337	92.55450439	1.0
[RightFoot]
55	0	-3.918009996	0	52.05904388	62.04008484	91.20838165	1.0
56	0	-3.918009996	0	51.79245758	62.26293945	91.9587326	1.0
57	0	-3.918009996	0	49.56824875	62.1540184	90.49887085	1.0
58	0	-3.918009996	0	48.82367706	61.90937805	89.62476349	1.0
[RightToeBase]
55	0	-0.5927900076	1.367989898	0	0	0	1.0
56	0	-0.5927900076	1.367989898	0	0	0	1.0
57	0	-0.5927900076	1.367989898	0	0	0	1.0
58	0	-0.5927900076	1.367989898	0	0	0	1.0
[EndOfFile]
